<?xml version="1.0" encoding="UTF-8"?>
<svg xmlns="http://www.w3.org/2000/svg" version="1.1" viewBox="0 0 36 36">
  <defs>
    <style>

      .cls-1 {
        fill: #269;
      }

      .cls-2 {
        fill: #3b88c3;
      }

      .cls-3 {
        fill: #e1e8ed;
      }

      .cls-4 {
        fill: #ccd6dd;
      }

      .cls-5 {
        fill: #55acee;
      }
    </style>
  </defs>
  <!-- Generator: Adobe Illustrator 28.6.0, SVG Export Plug-In . SVG Version: 1.2.0 Build 709)  -->
  <g>
    <g id="Layer_1">
      <g>
        <path class="cls-1" d="M35,26c0,2.2-1.8,4-4,4H5c-2.2,0-4-1.8-4-4V6.3C1,4.1,6.8,0,9,0h20.6C32.7,0,35,2.3,35,5.4v20.6Z"/>
        <path class="cls-4" d="M33,30c0,2.2-1.8,4-4,4H7c-2.2,0-4-1.8-4-4V6c0-4.1,0-4,5-4h21c2.2,0,4,1.8,4,4v24Z"/>
        <path class="cls-3" d="M31,31c0,1.7-1.3,3-3,3H4c-1.7,0-3-1.3-3-3V7c0-1.7,1.3-3,3-3h24c1.7,0,3,1.3,3,3v24Z"/>
        <path class="cls-2" d="M31,32c0,2.2-1.8,4-4,4H6c-2.2,0-4-1.8-4-4V10c0-2.2,1.8-4,4-4h21c2.2,0,4,1.8,4,4v22Z"/>
        <path class="cls-5" d="M29,32c0,2.2-1.8,4-4,4H6c-2.2,0-4-1.8-4-4V12c0-2.2,1.8-4,4-4h19.3c2.2,0,3.7,1.5,3.7,3.7v20.3Z"/>
        <path class="cls-1" d="M6,6c-1.7,0-1.7-1.9-1-2.8.8-.9,2.1-1.2,4.4-1.2h1.6V0h-2.7C4.3,0,1,2.5,1,5.4v26.6c0,2.2,1.8,4,4,4h2V6h-1Z"/>
      </g>
    </g>
  </g>
</svg>